<svg width="43" height="37" viewBox="0 0 43 37" fill="none" xmlns="http://www.w3.org/2000/svg">
<path d="M17.586 27.2116C20.5455 27.2116 22.9446 29.2752 22.9446 31.8208C22.9446 34.3664 20.5455 36.43 17.586 36.43C14.6265 36.43 12.2274 34.3664 12.2274 31.8208C12.2274 29.2752 14.6265 27.2116 17.586 27.2116ZM17.586 33.2622C18.5115 33.2622 19.2617 32.6169 19.2617 31.8208C19.2617 31.0248 18.5114 30.3795 17.586 30.3795C16.6605 30.3795 15.9102 31.0248 15.9102 31.8208C15.9102 32.6169 16.6605 33.2622 17.586 33.2622ZM33.4041 27.2116C36.3636 27.2116 38.7628 29.2752 38.7628 31.8208C38.7628 34.3664 36.3636 36.43 33.4041 36.43C30.4446 36.43 28.0455 34.3664 28.0455 31.8208C28.0455 29.2752 30.4446 27.2116 33.4041 27.2116H33.4041ZM33.4041 33.2622C34.3296 33.2622 35.0798 32.6169 35.0798 31.8208C35.0798 31.0248 34.3296 30.3795 33.4041 30.3795C32.4786 30.3795 31.7283 31.0248 31.7283 31.8208C31.7283 32.6169 32.4786 33.2622 33.4041 33.2622ZM33.3672 30.3795H14.9513C11.5087 30.3795 8.71794 27.979 8.71794 25.0179C8.71794 22.5343 10.6813 20.445 13.3458 19.8359L13.3892 19.8274L8.18715 5.2269C7.73342 4.02293 6.44131 3.16775 4.91691 3.16775H0V0H4.92609C8.08731 0 10.7658 1.77718 11.6849 4.23336L11.6989 4.27659V4.29242L18.3023 22.8242H14.9527C13.5442 22.8242 12.4023 23.8064 12.4023 25.018C12.4023 26.2296 13.5441 27.2117 14.9527 27.2117H33.3673L33.3672 30.3795ZM38.3098 22.8241H15.8181V19.6564H35.5328L38.597 10.438V9.21845H12.3194V6.0506H42.28V10.8815L38.3098 22.8241Z" fill="#CFBDBD"/>
</svg>
