<svg width="57" height="60" viewBox="0 0 57 60" fill="none" xmlns="http://www.w3.org/2000/svg">
<path d="M48.3518 0H56.7923V17.6608H48.5313C44.2555 17.6608 40.7781 19.7741 40.6836 22.4032V22.4087H52.7534V37.5913H40.6836V60H12.1121V37.5913H0V22.4087H12.1122C12.2309 10.0689 28.3739 0.0839061 48.3219 0.000117123L48.3348 0H48.3518ZM48.3518 12.4435V5.21736C32.9823 5.31603 20.5798 13.0282 20.5402 22.5367V27.626H8.44061V32.3739H20.5527V54.7826H32.2429V32.3739H44.3129V27.626H32.2429V22.5391V22.5125C32.2429 16.988 39.4405 12.5025 48.3554 12.4435H48.3644H48.3518Z" fill="black"/>
</svg>
