<svg width="45" height="39" viewBox="0 0 45 39" fill="none" xmlns="http://www.w3.org/2000/svg">
<path d="M31.7611 0H31.7985C35.245 0 38.3641 1.45912 40.6165 3.81625L40.6171 3.81683C42.8788 6.18544 44.2775 9.44897 44.2803 13.0525V13.0531C44.2804 13.0834 44.2805 13.1193 44.2805 13.1552C44.2805 17.5646 42.9828 21.6585 40.7632 25.0458L40.8083 24.9727C38.7671 28.0305 36.2631 30.5874 33.3754 32.593L33.2746 32.6588C30.1519 34.8894 26.5455 36.7243 22.69 37.9698L22.4059 38.0488L22.1403 38.1222L21.8766 38.0467C17.737 36.7222 14.1306 34.8873 10.8706 32.5643L11.0078 32.6566C8.01857 30.5855 5.5139 28.0286 3.53168 25.0647L3.47213 24.9706C1.2977 21.6561 0 17.5621 0 13.1525C0 13.1167 8.64844e-05 13.081 0.000259453 13.0454V13.0508C0.0350262 5.87049 5.63567 0.0637291 12.5394 0.0637291C16.3842 0.0637291 19.8248 1.86472 22.1249 4.70031L22.1403 4.71976C24.4422 1.83771 27.8836 0.0127369 31.7348 4.49819e-05H31.7369L31.7611 0ZM22.1403 35.9456C25.9684 34.662 29.2967 32.9473 32.3221 30.8038L32.1859 30.8949C38.8761 26.1333 42.2675 20.1295 42.2675 13.0509C42.2641 10.026 41.0891 7.28739 39.1895 5.29944L39.1901 5.29998C37.2989 3.32014 34.6805 2.09483 31.787 2.09483H31.743C28.0912 2.10555 24.8791 4.05514 23.0059 7.00628L22.9816 7.0471L22.1403 8.37313L21.2949 7.05335C19.3799 4.09745 16.1748 2.17927 12.5393 2.17927C6.75201 2.17927 2.05556 7.03998 2.01301 13.053V13.0572C2.01301 20.1294 5.40441 26.1333 12.0947 30.8949C14.9839 32.9472 18.3121 34.662 21.8626 35.8643L22.1402 35.9456L22.1403 35.9456ZM32.3529 23.0916L30.9682 21.5707C33.1412 19.4138 34.5125 16.3993 34.5788 13.051L34.579 13.0384V13.0383C34.579 11.4185 33.3174 10.1055 31.7611 10.1055H31.7463H31.7471L31.737 8.01073H31.7612C34.429 8.01073 36.5917 10.2617 36.5917 13.0383V13.0583V13.0572V13.0698C36.515 17.0173 34.905 20.5584 32.3583 23.0863L32.3529 23.0917L32.3529 23.0916Z" fill="#CFBDBD"/>
</svg>
