<svg width="60" height="60" viewBox="0 0 60 60" fill="none" xmlns="http://www.w3.org/2000/svg">
<path d="M11.7819 0H48.2182C54.722 0.00773437 59.9923 5.27801 60 11.7811V48.2182C59.9923 54.722 54.722 59.9923 48.2189 60H11.7818C5.27801 59.9922 0.00773437 54.722 0 48.219V11.7819C0.00773437 5.27795 5.27801 0.00773437 11.7811 0H11.7819ZM48.2183 57.2728C53.2164 57.2665 57.2666 53.2164 57.2728 48.2188V11.7819C57.2666 6.78369 53.2165 2.73352 48.2188 2.72736H11.7819C6.78375 2.73352 2.73357 6.78363 2.72742 11.7813V48.2182C2.73357 53.2164 6.78369 57.2665 11.7813 57.2727H11.7819L48.2183 57.2728ZM30 15.6272C37.9379 15.6272 44.3728 22.0621 44.3728 30C44.3728 37.9379 37.9379 44.3728 30 44.3728C22.0623 44.3728 15.6273 37.9379 15.6273 30C15.6367 22.0659 22.0659 15.6366 29.9992 15.6272H30ZM30 41.6454C36.4317 41.6454 41.6455 36.4316 41.6455 29.9999C41.6455 23.5683 36.4317 18.3546 30 18.3546C23.5685 18.3546 18.3546 23.5685 18.3546 30.0001C18.3623 36.4286 23.5716 41.6378 29.9994 41.6455H29.9999L30 41.6454ZM50.8092 13.091C50.8092 15.2449 49.0631 16.991 46.9092 16.991C44.7553 16.991 43.0092 15.2449 43.0092 13.091C43.0092 10.9371 44.7553 9.19096 46.9092 9.19096C49.0631 9.19096 50.8092 10.9371 50.8092 13.091Z" fill="black"/>
</svg>
