<svg width="31" height="31" viewBox="0 0 31 31" fill="none" xmlns="http://www.w3.org/2000/svg">
<path d="M11.5215 2.95541e-05C17.8847 2.95541e-05 23.043 5.1584 23.043 11.5215C23.043 17.8847 17.8847 23.0431 11.5215 23.0431C5.15833 23.0431 0 17.8847 0 11.5216C0.00757 5.16145 5.16141 0.00757001 11.5208 0H11.5215L11.5215 2.95541e-05ZM11.5215 20.3761C16.4117 20.3761 20.376 16.4118 20.376 11.5215C20.376 6.63127 16.4117 2.66707 11.5215 2.66707C6.63129 2.66707 2.66701 6.63136 2.66701 11.5216C2.67307 16.4094 6.63374 20.37 11.5209 20.3761H11.5215L11.5215 20.3761ZM28.3905 30.2801L17.5797 19.4653L19.4652 17.5797L30.28 28.3905L28.3905 30.2801Z" fill="#B17171"/>
</svg>
