<svg width="60" height="60" viewBox="0 0 60 60" fill="none" xmlns="http://www.w3.org/2000/svg">
<path d="M41.2059 59.9876C32.8501 59.9876 22.3988 54.672 13.9347 46.1178C8.28958 40.6263 3.92032 33.8532 1.29451 26.2662L1.18672 25.9085C-1.01191 18.635 -0.136117 12.552 3.65283 8.7763L12.408 0L29.4265 17.0183L22.735 23.7071C22.0715 24.3904 21.6623 25.324 21.6623 26.3531C21.6623 27.3821 22.0715 28.3157 22.7359 28.9999L22.735 28.999L30.9373 37.2012C31.6206 37.8778 32.561 38.2958 33.5991 38.2958C34.6372 38.2958 35.5776 37.8778 36.2612 37.2009L42.9497 30.5125L59.9575 47.5309L51.1361 56.2888C48.7007 58.5872 45.4078 60 41.7849 60C41.5813 60 41.3789 59.9956 41.1774 59.9868L41.2061 59.9878L41.2059 59.9876ZM12.4133 5.61975L6.46001 11.5916C3.7533 14.2876 3.23204 18.9655 4.98627 24.7681C7.52186 32.0647 11.5545 38.2826 16.7456 43.3118L16.7579 43.3237C24.5024 51.1529 33.8715 56.024 41.2059 56.024C41.3844 56.0357 41.5929 56.0424 41.803 56.0424C44.3319 56.0424 46.6341 55.0708 48.3564 53.4806L48.3498 53.4865L54.3533 47.5253L42.9443 36.1241L39.0548 40.011C37.654 41.4016 35.7242 42.261 33.5937 42.261C31.4632 42.261 29.5334 41.4016 28.1321 40.0106L19.9144 31.7982C18.543 30.3961 17.6967 28.4753 17.6967 26.3569C17.6967 24.2384 18.543 22.3178 19.9158 20.9142L23.8039 17.0261L12.4133 5.61975Z" fill="black"/>
</svg>
