<svg width="50" height="60" viewBox="0 0 50 60" fill="none" xmlns="http://www.w3.org/2000/svg">
<path d="M25.441 0H39.6749V2.04608C39.6749 7.0999 43.0816 11.3581 47.7239 12.6494L47.8012 12.6678H49.8604V26.9017H47.839C44.9072 26.8948 42.1019 26.3617 39.5097 25.3921L39.6749 25.4462V40.1626C39.6749 51.1185 30.7934 60 19.8375 60C8.88158 60 0 51.1186 0 40.1627C0 29.2067 8.88152 20.3252 19.8374 20.3252H21.8588V34.5215H19.824C16.7202 34.5215 14.2043 37.0375 14.2043 40.1411C14.2043 43.2447 16.7203 45.7608 19.8239 45.7608C22.9229 45.7608 25.4359 43.2524 25.4436 40.1553V40.1545L25.441 0ZM35.7614 4.04288H29.484V40.16C29.471 45.4793 25.1559 49.7864 19.8349 49.7864C14.5057 49.7864 10.1857 45.4663 10.1857 40.1372C10.1857 35.5242 13.4229 31.6672 17.7495 30.714L17.8134 30.7021V24.5029C10.0035 25.5396 4.04039 32.1572 4.04039 40.1675C4.04039 48.8906 11.1118 55.9619 19.8348 55.9619C28.5577 55.9619 35.6289 48.8908 35.6293 40.168V19.0718L39.0927 20.8049C41.0481 21.7927 43.3245 22.4813 45.7298 22.7405L45.8175 22.7482V16.2794C40.4699 14.42 36.5499 9.77195 35.7702 4.12129L35.7614 4.04288Z" fill="black"/>
</svg>
