<svg width="29" height="30" viewBox="0 0 29 30" fill="none" xmlns="http://www.w3.org/2000/svg">
<path d="M14.14 0C18.5662 0 22.1543 3.65521 22.1543 8.16416C22.1543 12.6731 18.5662 16.3283 14.14 16.3283C9.71392 16.3283 6.12586 12.6731 6.12586 8.16416C6.13096 3.65732 9.71599 0.00519887 14.1396 0H14.14ZM14.14 15.0179C17.8557 15.0179 20.8678 11.9494 20.8678 8.16419C20.8678 4.37898 17.8557 1.31052 14.14 1.31052C10.4244 1.31052 7.41224 4.37901 7.41224 8.16422C7.41664 11.9476 10.4262 15.0135 14.1396 15.0179H14.1401L14.14 15.0179ZM27.0142 29.5758L26.5382 26.8867C25.4247 20.8586 20.2972 16.3592 14.1381 16.3592C7.9864 16.3592 2.86381 20.8479 1.75423 26.7856L1.74175 26.8658L1.26581 29.5496L0 29.3163L0.475974 26.6299C1.70963 19.9945 7.35659 15.0441 14.1385 15.0441H14.1401H14.14C20.9282 15.046 26.5783 20.0072 27.7893 26.5643L27.8027 26.6521L28.28 29.3438L27.0142 29.5758Z" fill="#CFBDBD"/>
</svg>
