<svg width="61" height="60" viewBox="0 0 61 60" fill="none" xmlns="http://www.w3.org/2000/svg">
<path d="M30.2623 0C46.7049 0.00205078 60.0332 13.3319 60.0332 29.7746C60.0332 46.2187 46.7027 59.5492 30.2587 59.5492C25.3088 59.5492 20.6411 58.3413 16.5342 56.2043L16.6992 56.2825L0 60L3.71754 43.2978C1.6701 39.3653 0.469278 34.7102 0.469278 29.7747C0.469278 13.3371 13.7892 0.0106054 30.2244 0.000117123H30.2254L30.2623 0ZM30.2623 56.7135C45.1403 56.7135 57.2012 44.6526 57.2012 29.7746C57.2012 14.8967 45.1403 2.83576 30.2623 2.83576H30.2254C15.3552 2.84596 3.30446 14.903 3.30446 29.7746C3.30446 34.409 4.47469 38.7699 6.53579 42.5784L6.4653 42.436L6.71198 42.8981L3.73735 56.2626L17.1019 53.288L17.5641 53.5347C21.2376 55.5326 25.6078 56.709 30.2524 56.7135H30.2538H30.2623ZM34.7625 47.4182C28.7601 47.1018 23.4583 44.3441 19.7894 40.128L19.7674 40.1022C12.3605 32.6102 11.9494 25.8614 12.9277 21.5285C13.6127 18.5182 15.0181 15.9048 16.9549 13.7853L16.943 13.7984L17.9469 12.7945L27.781 22.6288L27.1828 23.8254C26.7433 24.6739 26.4856 25.6776 26.4856 26.7416C26.4856 28.5416 27.2232 30.1694 28.4125 31.3391L28.4134 31.34C29.5799 32.5287 31.2033 33.2655 32.9988 33.2655H33.0195H33.0185C34.0786 33.2638 35.0786 33.0082 35.9617 32.5565L35.9251 32.5735L36.1775 32.4459L37.5045 32.3523L47.0749 41.9228L46.0711 42.9266C43.0967 45.6573 39.1292 47.3481 34.7675 47.4012L34.7568 47.4013L34.7625 47.4182ZM18.0519 16.9149C16.9491 18.4348 16.1193 20.2304 15.6773 22.1735L15.6585 22.2714C14.5243 27.5316 16.5944 32.8599 21.7893 38.1087C24.974 41.8168 29.5552 44.2476 34.7078 44.5798L34.7625 44.5826C37.8599 44.5377 40.7096 43.5137 43.0254 41.8071L42.9861 41.8348L36.5745 35.4233C35.5308 35.8626 34.3176 36.1188 33.0449 36.1209H33.0441C27.8691 36.0991 23.6823 31.8988 23.6823 26.7206C23.6823 25.4568 23.9317 24.2511 24.384 23.1502L24.3612 23.2128L18.0519 16.9149Z" fill="black"/>
</svg>
